<svg width="100" height="100" xmlns="http://www.w3.org/2000/svg">
 <!-- Created with Method Draw - http://github.com/duopixel/Method-Draw/ -->
 <g>
  <title>background</title>
  <rect fill="none" id="canvas_background" height="102" width="102" y="-1" x="-1"/>
  <g display="none" overflow="visible" y="0" x="0" height="100%" width="100%" id="canvasGrid">
   <rect fill="url(#gridpattern)" stroke-width="0" y="0" x="0" height="100%" width="100%"/>
  </g>
 </g>
 <g>
  <title>Layer 1</title>
  <path stroke="#000" id="svg_1" d="m1.083557,38.545162l49.099498,-35.722513l49.099613,35.722513l-18.754298,57.800484l-60.690458,0l-18.754354,-57.800484z" stroke-width="1.5" fill="#000000"/>
  <path stroke="#000" id="svg_2" d="m11.333469,41.170086l39.224599,-28.537992l39.224687,28.537992l-14.982431,46.175644l-48.484383,0l-14.982471,-46.175644z" stroke-width="1.5" fill="#fff"/>
  <path stroke="#c90000" id="svg_4" d="m50.768892,92.395572c-1.447305,-1.979558 -3.697927,-2.205298 -4.239109,-5.022941c-0.424179,-1.532569 -4.423007,-3.588046 -2.056309,-0.837296c1.82751,1.657579 3.998705,7.771518 -0.497356,5.839813c-3.419591,-1.254995 -3.566226,-5.130301 -4.482838,-8.031606c-2.980762,-2.068052 0.770655,-6.440796 -2.438778,-9.090517c-2.723899,-2.765992 -0.826874,-7.946286 -4.719099,-9.907527c-1.953638,-0.792926 -2.799263,4.681866 -3.128203,0.676697c-1.070314,-4.050826 -4.850377,1.969143 -7.371029,1.330932c-2.034021,-0.176825 3.402391,-1.59089 0.808106,-1.971428c-1.525241,0.834961 -2.936457,2.278661 -3.177762,-0.111089c-1.834774,-1.089692 -5.682333,-2.829886 -5.582385,-4.560966c1.593313,-0.500527 6.972158,0.947774 6.040025,-1.064602c-1.599483,-0.607014 -1.890037,-2.266327 0.069014,-1.15271c3.860742,0.121111 8.38663,-1.419999 11.599014,1.527544c1.67559,1.030995 3.323089,4.728655 4.220115,1.135221c2.891589,-3.48762 8.726348,-3.783033 10.50888,-8.298627c0.43135,-2.184702 -1.324784,-3.431137 -2.816674,-3.873663c-0.290248,-0.717971 -0.784343,-3.766209 -2.018036,-2.227972c0.05623,-1.346321 1.213497,-4.56585 -1.349892,-3.140564c-0.259998,-2.867581 2.191376,-5.728481 -1.051463,-7.816689c3.038366,0.563642 2.439214,-2.900245 1.777429,-3.449605c1.801117,-0.255752 3.914813,-1.876542 2.921739,-3.884424c1.955965,3.550956 2.023787,-4.307966 3.634123,-0.920535c2.963832,0.485896 -0.920753,-2.647955 1.805245,-1.948469c1.556576,0.053262 1.210867,-1.705543 2.609206,-0.378113c1.850679,-1.009797 -1.418728,-4.061569 1.56939,-1.941162c1.004498,0.872663 4.202536,3.158297 3.628735,0.142201c2.83938,3.028848 5.073823,-2.813285 7.433237,-4.023133c0.935867,-1.119642 2.97099,-2.30457 1.094074,-0.167296c-1.246029,2.724365 -5.473385,5.67155 -4.336096,8.378602c-1.029426,0.937194 2.077021,2.115084 -0.39584,1.760275c-1.464994,1.581392 1.96408,4.540079 2.237737,7.028945c-0.785468,1.705315 -3.776344,3.6413 -4.986228,3.580111c0.442201,-2.195595 -0.51643,-5.057304 -3.316414,-3.816261c1.568496,2.869943 3.68908,5.611643 5.017701,8.732655c1.298631,3.068103 3.404139,6.611141 6.174226,2.66249c1.765574,-2.516704 6.809383,-2.480272 5.423891,1.606865c-0.708268,4.01345 1.18798,9.310396 -2.455618,12.075c-2.198019,4.235506 -4.634818,-1.574852 -2.907958,-3.772961c-0.440022,-0.62815 -0.780426,-1.071565 0.50719,-1.930204c-0.265872,-0.64407 3.705541,-3.067231 1.703964,-4.55412c-2.276466,2.581405 -5.607463,5.569393 -4.68174,9.406617c0.751325,2.571404 -5.445244,6.979841 -4.949731,2.712357c0.110992,-1.658489 2.478847,-4.872825 1.933798,-5.28693c-1.728749,3.243698 -4.187979,6.359962 -7.904125,7.32302c-3.091105,0.183179 -4.71035,2.672041 -3.242443,5.433459c0.28053,3.913053 -1.785019,7.454561 -2.260558,11.26447c0.883971,4.04091 6.265829,4.857476 6.996337,8.979513c1.255239,2.768362 -1.884606,2.359242 -3.347498,1.584618l0.000008,0.000003zm-7.653457,-12.055338c-0.453092,-1.826614 -1.38552,4.748298 -0.236133,1.258601l0.172066,-0.616533l0.064067,-0.642071l0,0.000003z" fill="#d8b800"/>
 </g>
</svg>